<svg width="32" height="32" viewBox="0 0 32 32" fill="none" xmlns="http://www.w3.org/2000/svg">
<path d="M16 0C7.178 0 0 7.178 0 16C0 24.822 7.178 32 16 32C24.822 32 32 24.822 32 16C32 7.178 24.822 0 16 0ZM23.34 23.096C23.144 23.374 22.836 23.522 22.522 23.522C22.322 23.522 22.122 23.464 21.948 23.34C18.198 20.704 11.96 20.558 7.748 21.54C7.214 21.666 6.672 21.33 6.548 20.792C6.424 20.254 6.756 19.716 7.296 19.59C11.926 18.518 18.846 18.714 23.096 21.704C23.548 22.022 23.656 22.644 23.34 23.096ZM25.292 19.194C25.096 19.466 24.79 19.61 24.48 19.61C24.276 19.61 24.074 19.55 23.896 19.422C19.546 16.3 14.202 15.524 7.07 16.98C6.532 17.086 6 16.742 5.89 16.2C5.778 15.66 6.128 15.13 6.668 15.02C14.382 13.446 20.226 14.326 25.062 17.796C25.51 18.12 25.614 18.744 25.292 19.194ZM27.264 13.954C27.07 14.24 26.754 14.392 26.436 14.392C26.242 14.392 26.046 14.336 25.874 14.22C20.36 10.478 11.978 10.46 6.552 12.38C6.032 12.56 5.46 12.29 5.276 11.768C5.092 11.248 5.364 10.676 5.886 10.492C11.788 8.406 20.934 8.45 27 12.564C27.456 12.874 27.572 13.496 27.264 13.954Z" fill="#0066FF"/>
</svg>
